<svg id="Capa_1" enable-background="new 0 0 512 512" height="512" viewBox="0 0 512 512" width="512" xmlns="http://www.w3.org/2000/svg" fill="#480CA8"><path d="m481.94 232.204h-22.041c-12.939-48.235-46.012-85.385-87.85-99.954 17.929-24.389 25.21-55.858 20.502-88.851-2.387-16.714-17.955-28.57-34.699-26.418-33.715 4.324-62.591 20.245-81.309 44.831-10.983 14.425-18.152 31.423-21.241 49.801-3.269-10.131-7.811-20.337-14.118-29.644-17.776-26.235-44.913-39.537-80.655-39.537-4.143 0-7.5 3.358-7.5 7.5s3.357 7.5 7.5 7.5c30.464 0 53.422 11.086 68.237 32.951 11.174 16.49 16.085 36.615 18.193 52.958-4.731-.891-9.408-2.476-13.943-4.771-22.835-11.56-48.048-15.521-72.9-11.458-16.425 2.685-32.013 8.698-46.333 17.872-3.487 2.234-4.504 6.873-2.27 10.361 2.235 3.488 6.872 4.503 10.361 2.269 12.587-8.064 26.268-13.346 40.661-15.699 21.699-3.548 43.727-.077 63.707 10.037 18.91 9.573 40.604 9.573 59.514 0 19.98-10.113 42.008-13.583 63.707-10.037 44.165 7.22 80.573 42.225 94.847 90.288h-376.624c6.218-20.881 16.793-39.744 30.894-54.988 2.813-3.04 2.628-7.786-.413-10.599-3.041-2.812-7.785-2.628-10.599.413-16.621 17.968-28.804 40.404-35.461 65.174h-22.047c-16.576.001-30.06 13.486-30.06 30.061v65.867c0 16.575 13.484 30.06 30.06 30.06h34.018c29.411 75.357 87.008 145.371 142.653 136.278 8.504-1.39 16.861-4.616 24.842-9.588 15.297-9.533 33.56-9.534 48.856.001 7.978 4.972 16.336 8.198 24.841 9.588 3.275.536 6.582.802 9.922.801 22.408-.001 46.11-12 69.15-35.151 2.922-2.936 2.91-7.685-.025-10.606-2.936-2.922-7.685-2.912-10.607.025-15.979 16.056-40.411 34.318-66.02 30.127-6.538-1.068-13.04-3.597-19.327-7.515-19.963-12.441-44.763-12.44-64.724 0-6.288 3.918-12.79 6.446-19.328 7.515-15.41 2.522-40.365-1.707-71.746-36.145-20.185-22.15-38.933-52.808-52.328-85.329h67.019c4.143 0 7.5-3.358 7.5-7.5s-3.357-7.5-7.5-7.5h-117.196c-8.304 0-15.06-6.756-15.06-15.06v-65.867c0-8.304 6.756-15.059 15.06-15.059h50.424v38.323c0 4.142 3.357 7.5 7.5 7.5s7.5-3.358 7.5-7.5v-38.323h25.535v55.947c0 4.142 3.357 7.5 7.5 7.5s7.5-3.358 7.5-7.5v-55.947h28.474v38.323c0 4.142 3.357 7.5 7.5 7.5s7.5-3.358 7.5-7.5v-38.323h25.535v55.947c0 4.142 3.357 7.5 7.5 7.5s7.5-3.358 7.5-7.5v-55.947h28.472v38.323c0 4.142 3.357 7.5 7.5 7.5s7.5-3.358 7.5-7.5v-38.323h25.535v55.947c0 4.142 3.357 7.5 7.5 7.5s7.5-3.358 7.5-7.5v-55.947h28.473v38.323c0 4.142 3.357 7.5 7.5 7.5s7.5-3.358 7.5-7.5v-38.323h25.536v55.947c0 4.142 3.357 7.5 7.5 7.5s7.5-3.358 7.5-7.5v-55.947h28.473v38.323c0 4.142 3.357 7.5 7.5 7.5s7.5-3.358 7.5-7.5v-38.323h22.513c.003 0 .007.001.01.001.005 0 .01-.001.015-.001h27.886c8.304 0 15.06 6.756 15.06 15.059v65.867c0 8.304-6.756 15.06-15.06 15.06h-301.998c-4.143 0-7.5 3.358-7.5 7.5s3.357 7.5 7.5 7.5h251.815c-9.972 24.178-23.094 47.738-37.534 67.254-2.464 3.33-1.762 8.026 1.568 10.49 1.342.993 2.905 1.471 4.455 1.471 2.297 0 4.565-1.052 6.035-3.039 16.29-22.017 30.963-48.895 41.637-76.176h34.02c16.575 0 30.06-13.485 30.06-30.06v-65.867c.001-16.576-13.483-30.061-30.059-30.061zm-171.852-104.406 22.297-29.144c2.517-3.29 1.89-7.997-1.399-10.514-3.291-2.518-7.998-1.889-10.515 1.399l-35.293 46.131c-2.081.913-4.15 1.865-6.194 2.9-3.28 1.66-6.636 2.931-10.03 3.856-2.268-27.085 4.414-51.681 19.525-71.527 16.502-21.676 41.151-35.175 71.282-39.04 8.666-1.108 16.707 5.018 17.941 13.66 4.293 30.074-2.161 57.427-18.665 79.103-.855 1.124-1.741 2.234-2.651 3.324-1.493-.303-2.992-.586-4.502-.833-13.982-2.285-28.075-2.032-41.796.685z"/></svg>